Coordinates
version=1
nRows=10
nColumns=38
inDegrees=yes

Units are S.I. units (second, meters, Newtons, ...)
Angles are in degrees.

endheader
time	pelvis_tilt	pelvis_list	pelvis_rotation	pelvis_tx	pelvis_ty	pelvis_tz	hip_flexion_r	hip_adduction_r	hip_rotation_r	knee_angle_r	ankle_angle_r	subtalar_angle_r	mtp_angle_r	hip_flexion_l	hip_adduction_l	hip_rotation_l	knee_angle_l	ankle_angle_l	subtalar_angle_l	mtp_angle_l	lumbar_extension	lumbar_bending	lumbar_rotation	arm_flex_r	arm_add_r	arm_rot_r	elbow_flex_r	pro_sup_r	wrist_flex_r	wrist_dev_r	arm_flex_l	arm_add_l	arm_rot_l	elbow_flex_l	pro_sup_l	wrist_flex_l	wrist_dev_l
      2.04000000	      0.94754081	     -1.68718945	      6.55036122	      0.29818733	      0.92151293	     -0.23161769	     -1.29964774	      7.31200430	     -6.06775192	    -15.01608731	     10.00353150	     -1.86649861	      1.15537306	     25.10563747	      0.23657299	      3.26557948	    -45.29093583	      0.51614971	     -6.53388863	     14.77720383	     -7.87781401	      3.94860250	      1.53896021	     -3.01324526	    -21.37308205	      8.26870588	     35.83871554	     86.51662706	      0.00000000	      0.00000000	     -5.13108550	    -14.77899442	     18.06405110	     17.87153350	     86.51662706	      0.00000000	      0.00000000
      2.05000000	      1.11701104	     -1.60257520	      6.49141925	      0.30964351	      0.92061418	     -0.23199785	     -2.68075800	      7.31005076	     -6.13800660	    -14.30481603	     10.50836806	     -1.37324613	      1.12310661	     25.44371502	      0.32401386	      3.11405230	    -42.34707416	      0.51022121	     -7.91402406	     13.66174454	     -8.19150028	      3.86033375	      1.87359574	     -2.70340231	    -21.54367741	      8.28826628	     36.23523685	     86.51662706	      0.00000000	      0.00000000	     -5.29566632	    -14.71431204	     17.78280845	     17.71194183	     86.51662706	      0.00000000	      0.00000000
      2.06000000	      1.29634761	     -1.55022884	      6.44991976	      0.32116413	      0.91948425	     -0.23245126	     -4.05654311	      7.33959650	     -6.20190118	    -13.63168812	     11.00548940	     -0.89346188	      1.11741366	     25.68425143	      0.38972079	      3.01500357	    -39.26301935	      0.47046068	     -9.13137078	     12.64514482	     -8.50860119	      3.81332450	      2.18363232	     -2.40057891	    -21.72002112	      8.32332858	     36.60550013	     86.51662706	      0.00000000	      0.00000000	     -5.43438065	    -14.63505239	     17.57023136	     17.51159285	     86.51662706	      0.00000000	      0.00000000
      2.07000000	      1.47352801	     -1.52823278	      6.42375044	      0.33276130	      0.91813381	     -0.23298001	     -5.40431749	      7.39744726	     -6.24207430	    -13.01634279	     11.49264635	     -0.45495641	      1.14074570	     25.85263202	      0.43368693	      2.96253681	    -36.07981391	      0.44831976	    -10.09138942	     11.75199305	     -8.81256802	      3.80356247	      2.47301551	     -2.10903644	    -21.90105854	      8.37637575	     36.94490502	     86.51662706	      0.00000000	      0.00000000	     -5.54692175	    -14.54303230	     17.43838869	     17.26417460	     86.51662706	      0.00000000	      0.00000000
      2.08000000	      1.63658171	     -1.53374667	      6.40869667	      0.34445261	      0.91657902	     -0.23358740	     -6.70163148	      7.47820081	     -6.24777898	    -12.47557372	     11.96841212	     -0.07921632	      1.19411921	     25.97596970	      0.45604550	      2.94714199	    -32.84818378	      0.48543938	    -10.69817426	     10.99945402	     -9.08724951	      3.82574594	      2.74614072	     -1.83216391	    -22.08523949	      8.44852920	     37.24870542	     86.51662706	      0.00000000	      0.00000000	     -5.63284149	    -14.43906865	     17.39736049	     16.96315364	     86.51662706	      0.00000000	      0.00000000
      2.09000000	      1.77447042	     -1.56330343	      6.39833277	      0.35624513	      0.91482289	     -0.23427905	     -7.92923685	      7.57581831	     -6.21592993	    -12.02236853	     12.43181405	      0.22223028	      1.27700837	     26.08084075	      0.45737161	      2.95404896	    -29.62723251	      0.60774118	    -10.86421435	     10.39616537	     -9.31888813	      3.87433569	      3.00721630	     -1.57206513	    -22.27080594	      8.53902837	     37.51262504	     86.51662706	      0.00000000	      0.00000000	     -5.69172571	    -14.32245267	     17.45460286	     16.60265684	     86.51662706	      0.00000000	      0.00000000
      2.10000000	      1.87833175	     -1.61335239	      6.38549017	      0.36812549	      0.91286539	     -0.23505750	     -9.07312334	      7.68481564	     -6.15091193	    -11.66649238	     12.88168961	      0.45006006	      1.38747543	     26.19112377	      0.43888829	      2.96204909	    -26.48224635	      0.82275489	    -10.52273829	      9.94167210	     -9.49790319	      3.94462243	      3.25960904	     -1.32954370	    -22.45582499	      8.64496367	     37.73347114	     86.51662706	      0.00000000	      0.00000000	     -5.72330879	    -14.19096400	     17.61437961	     16.17863282	     86.51662706	      0.00000000	      0.00000000
      2.11000000	      1.94302530	     -1.68111608	      6.36440779	      0.38007369	      0.91073191	     -0.23591393	    -10.12494353	      7.80028775	     -6.06325738	    -11.41586706	     13.31571773	      0.61762700	      1.52259754	     26.32588976	      0.40300470	      2.94425686	    -23.48239837	      1.12110745	     -9.64084693	      9.62671714	     -9.62014830	      4.03328527	      3.50534574	     -1.10460485	    -22.63799295	      8.76132941	     37.90961351	     86.51662706	      0.00000000	      0.00000000	     -5.72745605	    -14.04161182	     17.87732503	     15.69010257	     86.51662706	      0.00000000	      0.00000000
      2.12000000	      1.96840075	     -1.76470457	      6.33197944	      0.39208449	      0.90848013	     -0.23683608	    -11.08126645	      7.91709701	     -5.96750417	    -11.27777651	     13.72932221	      0.74950856	      1.67927315	     26.49771631	      0.35429378	      2.87193908	    -20.69891871	      1.48162074	     -8.23093856	      9.43453080	     -9.68748121	      4.13795415	      3.74499554	     -0.89741281	    -22.81437982	      8.88141694	     38.04121005	     86.51662706	      0.00000000	      0.00000000	     -5.70417299	    -13.87201594	     18.24022072	     15.14021383	     86.51662706	      0.00000000	      0.00000000
      2.13000000	      1.95944662	     -1.86195457	      6.28727912	      0.40416993	      0.90617482	     -0.23782391	    -11.94288482	      8.02869978	     -5.87962581	    -11.25929452	     14.11484925	      0.87824526	      1.85548003	     26.71193550	      0.30038823	      2.72133834	    -18.20365407	      1.87817218	     -6.35771619	      9.34299350	     -9.70749132	      4.25568419	      3.97807944	     -0.70947306	    -22.98125288	      8.99751516	     38.13011228	     86.51662706	      0.00000000	      0.00000000	     -5.65389704	    -13.68186544	     18.69604710	     14.53679989	     86.51662706	      0.00000000	      0.00000000
